{
  "accessors": [
    {
      "bufferView": 2,
      "componentType": 5126,
      "count": 44,
      "max": [
        0.004767830017954111,
        0.005865749903023243,
        0.7208499908447266
      ],
      "min": [
        -0.5513929724693298,
        -0.005865749903023243,
        0.16468900442123413
      ],
      "type": "VEC3"
    },
    {
      "bufferView": 2,
      "byteOffset": 528,
      "componentType": 5126,
      "count": 44,
      "max": [
        1.0,
        1.0,
        1.0
      ],
      "min": [
        -1.0,
        -1.6292099758175027e-07,
        -1.0
      ],
      "type": "VEC3"
    },
    {
      "bufferView": 3,
      "componentType": 5126,
      "count": 44,
      "max": [
        1.0,
        3.3172345865750685e-06,
        3.203635707410557e-12,
        1.0
      ],
      "min": [
        -3.694779707075213e-06,
        -1.966373747563921e-05,
        -1.0,
        1.0
      ],
      "type": "VEC4"
    },
    {
      "bufferView": 1,
      "componentType": 5126,
      "count": 44,
      "max": [
        0.9777960181236267,
        0.9998469948768616
      ],
      "min": [
        0.00015350000467151403,
        0.00015350000467151403
      ],
      "type": "VEC2"
    },
    {
      "bufferView": 0,
      "componentType": 5125,
      "count": 72,
      "type": "SCALAR"
    },
    {
      "bufferView": 2,
      "byteOffset": 1056,
      "componentType": 5126,
      "count": 27,
      "max": [
        0.004768069833517075,
        0.00586568983271718,
        1.0
      ],
      "min": [
        -0.5513929724693298,
        -0.005865720100700855,
        0.759460985660553
      ],
      "type": "VEC3"
    },
    {
      "bufferView": 2,
      "byteOffset": 1380,
      "componentType": 5126,
      "count": 27,
      "max": [
        0.0,
        1.0,
        0.7381102442741394
      ],
      "min": [
        -0.7381102442741394,
        0.6585162281990051,
        -1.6292099758175027e-07
      ],
      "type": "VEC3"
    },
    {
      "bufferView": 3,
      "byteOffset": 704,
      "componentType": 5126,
      "count": 27,
      "max": [
        1.0,
        0.03281882777810097,
        0.9807892441749573,
        1.0
      ],
      "min": [
        0.19507046043872833,
        -0.0329163521528244,
        -4.77386056445539e-05,
        1.0
      ],
      "type": "VEC4"
    },
    {
      "bufferView": 1,
      "byteOffset": 352,
      "componentType": 5126,
      "count": 27,
      "max": [
        0.9999250173568726,
        0.4822880029678345
      ],
      "min": [
        7.475959864677861e-05,
        7.475959864677861e-05
      ],
      "type": "VEC2"
    },
    {
      "bufferView": 0,
      "byteOffset": 288,
      "componentType": 5125,
      "count": 60,
      "type": "SCALAR"
    },
    {
      "bufferView": 2,
      "byteOffset": 1704,
      "componentType": 5126,
      "count": 16,
      "max": [
        0.29349198937416077,
        0.00586568983271718,
        0.9988499879837036
      ],
      "min": [
        0.015411400236189365,
        -0.005865720100700855,
        0.7583019733428955
      ],
      "type": "VEC3"
    },
    {
      "bufferView": 2,
      "byteOffset": 1896,
      "componentType": 5126,
      "count": 16,
      "max": [
        3.1185201805783436e-05,
        1.0,
        1.0
      ],
      "min": [
        -3.1495099392486736e-05,
        -4.448139861779055e-06,
        -1.0
      ],
      "type": "VEC3"
    },
    {
      "bufferView": 3,
      "byteOffset": 1136,
      "componentType": 5126,
      "count": 16,
      "max": [
        1.0,
        3.8730221287031075e-12,
        -3.1185201805783436e-05,
        1.0
      ],
      "min": [
        1.0,
        -1.0143683084606891e-06,
        -3.448420829954557e-05,
        1.0
      ],
      "type": "VEC4"
    },
    {
      "bufferView": 1,
      "byteOffset": 568,
      "componentType": 5126,
      "count": 16,
      "max": [
        0.999862015247345,
        0.9254040122032166
      ],
      "min": [
        0.00013842000043950975,
        0.00013842000043950975
      ],
      "type": "VEC2"
    },
    {
      "bufferView": 0,
      "byteOffset": 528,
      "componentType": 5125,
      "count": 24,
      "type": "SCALAR"
    },
    {
      "bufferView": 2,
      "byteOffset": 2088,
      "componentType": 5126,
      "count": 29,
      "max": [
        0.5513929724693298,
        0.00586568983271718,
        0.9983980059623718
      ],
      "min": [
        0.3108539879322052,
        -0.005865720100700855,
        0.757860004901886
      ],
      "type": "VEC3"
    },
    {
      "bufferView": 2,
      "byteOffset": 2436,
      "componentType": 5126,
      "count": 29,
      "max": [
        0.7381102442741394,
        1.0,
        0.7381102442741394
      ],
      "min": [
        -3.9511199645403394e-08,
        0.6585162281990051,
        -1.6292099758175027e-07
      ],
      "type": "VEC3"
    },
    {
      "bufferView": 3,
      "byteOffset": 1392,
      "componentType": 5126,
      "count": 29,
      "max": [
        1.0,
        3.955015515089144e-08,
        0.7330644726753235,
        1.0
      ],
      "min": [
        0.12845228612422943,
        -0.7525665760040283,
        -2.6520279789110646e-05,
        1.0
      ],
      "type": "VEC4"
    },
    {
      "bufferView": 1,
      "byteOffset": 696,
      "componentType": 5126,
      "count": 29,
      "max": [
        0.999891996383667,
        0.8967620134353638
      ],
      "min": [
        0.0001083390015992336,
        0.0001083390015992336
      ],
      "type": "VEC2"
    },
    {
      "bufferView": 0,
      "byteOffset": 624,
      "componentType": 5125,
      "count": 60,
      "type": "SCALAR"
    },
    {
      "bufferView": 2,
      "byteOffset": 2784,
      "componentType": 5126,
      "count": 29,
      "max": [
        0.0047676898539066315,
        0.005865749903023243,
        -0.44384101033210754
      ],
      "min": [
        -0.5513929724693298,
        -0.005865749903023243,
        -1.0
      ],
      "type": "VEC3"
    },
    {
      "bufferView": 2,
      "byteOffset": 3132,
      "componentType": 5126,
      "count": 29,
      "max": [
        0.0,
        1.0,
        -1.6292099758175027e-07
      ],
      "min": [
        -0.7381102442741394,
        0.658513069152832,
        -0.7381070852279663
      ],
      "type": "VEC3"
    },
    {
      "bufferView": 1,
      "byteOffset": 928,
      "componentType": 5126,
      "count": 29,
      "max": [
        0.9727159738540649,
        0.9998959898948669
      ],
      "min": [
        0.00010380800085840747,
        0.00010380800085840747
      ],
      "type": "VEC2"
    },
    {
      "bufferView": 0,
      "byteOffset": 864,
      "componentType": 5125,
      "count": 60,
      "type": "SCALAR"
    },
    {
      "bufferView": 2,
      "byteOffset": 3480,
      "componentType": 5126,
      "count": 16,
      "max": [
        0.004767830017954111,
        0.005865749903023243,
        0.14446300268173218
      ],
      "min": [
        -0.5513929724693298,
        -0.005865749903023243,
        -0.41169801354408264
      ],
      "type": "VEC3"
    },
    {
      "bufferView": 2,
      "byteOffset": 3672,
      "componentType": 5126,
      "count": 16,
      "max": [
        1.0,
        1.0,
        -0.0
      ],
      "min": [
        -1.0,
        0.0,
        -1.6292099758175027e-07
      ],
      "type": "VEC3"
    },
    {
      "bufferView": 3,
      "byteOffset": 1856,
      "componentType": 5126,
      "count": 16,
      "max": [
        0.0,
        8.851641268847743e-07,
        -1.0,
        1.0
      ],
      "min": [
        -3.082615194216487e-06,
        -3.244954086767393e-06,
        -1.0,
        1.0
      ],
      "type": "VEC4"
    },
    {
      "bufferView": 1,
      "byteOffset": 1160,
      "componentType": 5126,
      "count": 16,
      "max": [
        0.9669100046157837,
        0.999871015548706
      ],
      "min": [
        0.00012908199278172106,
        0.00012908199278172106
      ],
      "type": "VEC2"
    },
    {
      "bufferView": 0,
      "byteOffset": 1104,
      "componentType": 5125,
      "count": 24,
      "type": "SCALAR"
    }
  ],
  "asset": {
    "extras": {
      "author": "Alastoir De Faruh (https://sketchfab.com/alfaruh)",
      "license": "CC-BY-4.0 (http://creativecommons.org/licenses/by/4.0/)",
      "source": "https://sketchfab.com/3d-models/road-tiles-da64b9f2e8294180b03c97057089bb98",
      "title": "Road Tiles"
    },
    "generator": "Sketchfab-12.68.0",
    "version": "2.0"
  },
  "bufferViews": [
    {
      "buffer": 0,
      "byteLength": 1200,
      "name": "floatBufferViews",
      "target": 34963
    },
    {
      "buffer": 0,
      "byteLength": 1288,
      "byteOffset": 1200,
      "byteStride": 8,
      "name": "floatBufferViews",
      "target": 34962
    },
    {
      "buffer": 0,
      "byteLength": 3864,
      "byteOffset": 2488,
      "byteStride": 12,
      "name": "floatBufferViews",
      "target": 34962
    },
    {
      "buffer": 0,
      "byteLength": 2112,
      "byteOffset": 6352,
      "byteStride": 16,
      "name": "floatBufferViews",
      "target": 34962
    }
  ],
  "buffers": [
    {
      "byteLength": 8464,
      "uri": "scene.bin"
    }
  ],
  "images": [
    {
      "uri": "textures/Material_baseColor.jpeg"
    },
    {
      "uri": "textures/Material_metallicRoughness.png"
    },
    {
      "uri": "textures/Material_normal.png"
    },
    {
      "uri": "textures/Material_005_baseColor.jpeg"
    },
    {
      "uri": "textures/Material_009_baseColor.jpeg"
    },
    {
      "uri": "textures/Material_009_metallicRoughness.png"
    },
    {
      "uri": "textures/Material_008_baseColor.jpeg"
    },
    {
      "uri": "textures/Material_008_metallicRoughness.png"
    },
    {
      "uri": "textures/Material_008_normal.png"
    },
    {
      "uri": "textures/Material_007_baseColor.jpeg"
    },
    {
      "uri": "textures/Material_007_normal.png"
    },
    {
      "uri": "textures/Material_006_baseColor.jpeg"
    },
    {
      "uri": "textures/Material_006_metallicRoughness.png"
    },
    {
      "uri": "textures/Material_006_normal.png"
    }
  ],
  "materials": [
    {
      "doubleSided": true,
      "name": "Material",
      "normalTexture": {
        "index": 2
      },
      "pbrMetallicRoughness": {
        "baseColorTexture": {
          "index": 0
        },
        "metallicRoughnessTexture": {
          "index": 1
        }
      }
    },
    {
      "doubleSided": true,
      "name": "Material_005",
      "pbrMetallicRoughness": {
        "baseColorTexture": {
          "index": 3
        },
        "metallicFactor": 0.0,
        "roughnessFactor": 0.6
      }
    },
    {
      "doubleSided": true,
      "name": "Material_009",
      "normalTexture": {
        "index": 2
      },
      "pbrMetallicRoughness": {
        "baseColorTexture": {
          "index": 4
        },
        "metallicRoughnessTexture": {
          "index": 5
        }
      }
    },
    {
      "doubleSided": true,
      "name": "Material_008",
      "normalTexture": {
        "index": 8
      },
      "pbrMetallicRoughness": {
        "baseColorTexture": {
          "index": 6
        },
        "metallicRoughnessTexture": {
          "index": 7
        }
      }
    },
    {
      "doubleSided": true,
      "name": "Material_007",
      "normalTexture": {
        "index": 10
      },
      "pbrMetallicRoughness": {
        "baseColorTexture": {
          "index": 9
        },
        "metallicRoughnessTexture": {
          "index": 1
        }
      }
    },
    {
      "doubleSided": true,
      "name": "Material_006",
      "normalTexture": {
        "index": 13
      },
      "pbrMetallicRoughness": {
        "baseColorTexture": {
          "index": 11
        },
        "metallicRoughnessTexture": {
          "index": 12
        }
      }
    }
  ],
  "meshes": [
    {
      "name": "defaultMaterial",
      "primitives": [
        {
          "attributes": {
            "NORMAL": 1,
            "POSITION": 0,
            "TANGENT": 2,
            "TEXCOORD_0": 3
          },
          "indices": 4,
          "material": 5,
          "mode": 4
        }
      ]
    },
    {
      "name": "defaultMaterial",
      "primitives": [
        {
          "attributes": {
            "NORMAL": 6,
            "POSITION": 5,
            "TANGENT": 7,
            "TEXCOORD_0": 8
          },
          "indices": 9,
          "material": 4,
          "mode": 4
        }
      ]
    },
    {
      "name": "defaultMaterial",
      "primitives": [
        {
          "attributes": {
            "NORMAL": 11,
            "POSITION": 10,
            "TANGENT": 12,
            "TEXCOORD_0": 13
          },
          "indices": 14,
          "material": 3,
          "mode": 4
        }
      ]
    },
    {
      "name": "defaultMaterial",
      "primitives": [
        {
          "attributes": {
            "NORMAL": 16,
            "POSITION": 15,
            "TANGENT": 17,
            "TEXCOORD_0": 18
          },
          "indices": 19,
          "material": 2,
          "mode": 4
        }
      ]
    },
    {
      "name": "defaultMaterial",
      "primitives": [
        {
          "attributes": {
            "NORMAL": 21,
            "POSITION": 20,
            "TEXCOORD_0": 22
          },
          "indices": 23,
          "material": 1,
          "mode": 4
        }
      ]
    },
    {
      "name": "defaultMaterial",
      "primitives": [
        {
          "attributes": {
            "NORMAL": 25,
            "POSITION": 24,
            "TANGENT": 26,
            "TEXCOORD_0": 27
          },
          "indices": 28,
          "material": 0,
          "mode": 4
        }
      ]
    }
  ],
  "nodes": [
    {
      "children": [
        1
      ],
      "matrix": [
        1.0,
        0.0,
        0.0,
        0.0,
        0.0,
        2.220446049250313e-16,
        -1.0,
        0.0,
        0.0,
        1.0,
        2.220446049250313e-16,
        0.0,
        0.0,
        0.0,
        0.0,
        1.0
      ],
      "name": "Sketchfab_model"
    },
    {
      "children": [
        2,
        4,
        6,
        8,
        10,
        12
      ],
      "matrix": [
        1.0,
        0.0,
        0.0,
        0.0,
        0.0,
        -4.371139006309477e-08,
        0.999999999999999,
        0.0,
        0.0,
        -0.999999999999999,
        -4.371139006309477e-08,
        0.0,
        0.0,
        0.0,
        0.0,
        1.0
      ],
      "name": "Collada visual scene group"
    },
    {
      "children": [
        3
      ],
      "name": "Plane.000"
    },
    {
      "mesh": 0,
      "name": "defaultMaterial"
    },
    {
      "children": [
        5
      ],
      "name": "Plane.001"
    },
    {
      "mesh": 1,
      "name": "defaultMaterial"
    },
    {
      "children": [
        7
      ],
      "name": "Plane.003"
    },
    {
      "mesh": 2,
      "name": "defaultMaterial"
    },
    {
      "children": [
        9
      ],
      "name": "Plane.004"
    },
    {
      "mesh": 3,
      "name": "defaultMaterial"
    },
    {
      "children": [
        11
      ],
      "name": "Plane.006"
    },
    {
      "mesh": 4,
      "name": "defaultMaterial"
    },
    {
      "children": [
        13
      ],
      "name": "Plane.007"
    },
    {
      "mesh": 5,
      "name": "defaultMaterial"
    }
  ],
  "samplers": [
    {
      "magFilter": 9729,
      "minFilter": 9987,
      "wrapS": 10497,
      "wrapT": 10497
    }
  ],
  "scene": 0,
  "scenes": [
    {
      "name": "Sketchfab_Scene",
      "nodes": [
        0
      ]
    }
  ],
  "textures": [
    {
      "sampler": 0,
      "source": 0
    },
    {
      "sampler": 0,
      "source": 1
    },
    {
      "sampler": 0,
      "source": 2
    },
    {
      "sampler": 0,
      "source": 3
    },
    {
      "sampler": 0,
      "source": 4
    },
    {
      "sampler": 0,
      "source": 5
    },
    {
      "sampler": 0,
      "source": 6
    },
    {
      "sampler": 0,
      "source": 7
    },
    {
      "sampler": 0,
      "source": 8
    },
    {
      "sampler": 0,
      "source": 9
    },
    {
      "sampler": 0,
      "source": 10
    },
    {
      "sampler": 0,
      "source": 11
    },
    {
      "sampler": 0,
      "source": 12
    },
    {
      "sampler": 0,
      "source": 13
    }
  ]
}
